<svg width="178" height="66" viewBox="0 0 178 66" fill="none" xmlns="http://www.w3.org/2000/svg">
<path d="M30.9688 44.609L15.5833 17.9458C4.566 34.7386 11.2768 24.5075 6.40877 31.9293C10.6843 39.3388 14.9619 46.7472 19.2374 54.1566L46.1828 54.8603L47.5756 52.736C29.9848 22.2509 37.3891 35.05 25.7779 14.9277L44.6651 15.4163L47.8841 20.9949C43.8353 20.8859 39.7864 20.772 35.7378 20.668C40.8637 29.5511 45.9918 38.4382 51.1222 47.3292C58.0383 36.7871 59.8811 33.9779 60.2977 33.3427C56.0201 25.9342 51.7436 18.5278 47.4661 11.1194L20.5227 10.4146L19.1299 12.539C36.7162 43.0163 29.3265 30.2425 40.9276 50.3472L22.0472 49.8704L18.8293 44.2938L30.9699 44.6109L30.9688 44.609Z" fill="#703BF7"/>
<path d="M30.9689 44.609L15.5833 17.9458C4.56606 34.7386 11.2768 24.5075 6.40883 31.9293C10.6843 39.3388 14.9619 46.7472 19.2375 54.1566L46.1829 54.8603L47.5757 52.736C29.9848 22.2509 37.3892 35.0501 25.778 14.9277L44.6651 15.4163L47.8841 20.9949C43.8354 20.8859 39.7865 20.772 35.7379 20.668C40.8638 29.5511 45.9919 38.4382 51.1223 47.3292C58.0384 36.7871 59.8811 33.9779 60.2978 33.3427C56.0202 25.9342 51.7437 18.5278 47.4661 11.1194L20.5227 10.4146L19.1299 12.539C36.7163 43.0163 29.3266 30.2425 40.9277 50.3472L22.0472 49.8704L18.8294 44.2938L30.97 44.6109L30.9689 44.609Z" fill="#703BF7"/>
<path d="M158.882 23.8989H165.208L171.051 43.4046L166.262 57.7264H160.2L164.593 43.3168L158.882 23.8989ZM169.162 29.7858L171.007 23.8989H177.333L172.369 38.7479H171.798L169.162 29.7858Z" fill="#4D4D4D"/>
<path d="M145.131 31.8507V26.1395H148.206V24.4262C148.206 23.0497 148.807 21.6438 150.008 20.2087C151.531 18.4222 153.405 17.4996 155.631 17.441H158.574L157.256 23.1082H155.675C154.796 23.1961 154.269 23.6354 154.093 24.4262V26.1395H157.256V31.8507H154.093V48.9401H148.206V31.8507H145.131Z" fill="#4D4D4D"/>
<path d="M136.301 48.94V17.4849H142.627V48.94H136.301Z" fill="#4D4D4D"/>
<path d="M126.284 48.94V17.4849H132.611V48.94H126.284Z" fill="#4D4D4D"/>
<path d="M115.873 20.3405C115.873 19.1397 116.414 18.2317 117.498 17.6167C117.996 17.3238 118.523 17.1774 119.08 17.1774C120.31 17.1774 121.232 17.7192 121.847 18.8028C122.111 19.3007 122.243 19.8133 122.243 20.3405C122.243 21.5705 121.701 22.4931 120.617 23.1082C120.119 23.3718 119.607 23.5035 119.08 23.5035C117.82 23.5035 116.883 22.9471 116.268 21.8341C116.004 21.3655 115.873 20.8676 115.873 20.3405ZM116.18 48.9401V25.2169H122.067V48.9401H116.18Z" fill="#4D4D4D"/>
<path d="M93.5552 48.94V17.4849H99.6178V48.94H93.5552ZM100.892 36.3316L106.295 23.8989H112.71L107.174 36.3316L112.797 48.94H106.427L100.892 36.3316Z" fill="#4D4D4D"/>
<path d="M71.4576 41.9989L77.0369 40.022C77.0369 40.7542 77.2419 41.3985 77.652 41.955C78.062 42.5114 78.472 42.8775 78.8821 43.0533L79.4971 43.3608V49.0719C77.0076 49.0719 74.8843 47.9883 73.127 45.821C72.0433 44.4444 71.4869 43.1704 71.4576 41.9989ZM71.809 26.6228C71.809 23.4011 73.1856 20.9849 75.9386 19.374C77.198 18.6125 78.3842 18.2172 79.4971 18.1879V23.9869C78.7649 24.1919 78.2231 24.7191 77.8716 25.5684C77.7545 25.832 77.6959 26.1102 77.6959 26.4031C77.6959 27.6039 78.5892 28.629 80.3757 29.4783C80.7565 29.6541 81.3715 29.9177 82.2209 30.2691C83.6267 30.8256 84.6225 31.2795 85.2082 31.631C87.5806 33.0368 89.1621 34.4719 89.9529 35.9363C90.5386 37.0785 90.8315 38.3526 90.8315 39.7584C90.8315 42.4236 89.8211 44.708 87.8002 46.6117C86.0722 48.2519 84.1099 49.0719 81.9134 49.0719V43.3608C83.0556 43.2144 83.861 42.614 84.3296 41.5596C84.5346 41.091 84.6371 40.5784 84.6371 40.022C84.6371 38.5283 83.5242 37.2982 81.2983 36.3317C80.8883 36.156 80.2439 35.907 79.3653 35.5849C78.3402 35.2334 77.6227 34.9552 77.2126 34.7502C74.6939 33.5494 73.0831 31.9971 72.3801 30.0934C71.9994 29.0683 71.809 27.9114 71.809 26.6228ZM81.9134 23.9869V18.1879C84.3735 18.1879 86.4383 19.2276 88.1077 21.307C89.0742 22.5371 89.5721 23.6501 89.6014 24.6458L83.8903 26.5349C83.8903 25.3048 83.2899 24.4701 82.0891 24.0308C81.9719 24.0015 81.9134 23.9869 81.9134 23.9869Z" fill="#4D4D4D"/>
</svg>
