<svg width="20" height="22" viewBox="0 0 20 22" fill="none" xmlns="http://www.w3.org/2000/svg">
<g id="vuesax/linear/magic-star">
<g id="magic-star">
<g id="Group">
<g id="Group_2">
<path id="Vector" d="M14.4083 3.63145L14.35 6.956C14.3417 7.41214 14.6167 8.01742 14.9667 8.28935L17.0334 9.93845C18.3584 10.9911 18.1417 12.2806 16.5583 12.8069L13.8667 13.6928C13.4167 13.842 12.9417 14.3595 12.825 14.842L12.1833 17.4209C11.675 19.456 10.4083 19.6578 9.35833 17.8683L7.89166 15.3683C7.62499 14.9121 6.99167 14.57 6.49167 14.5964L3.70836 14.7455C1.71669 14.8507 1.15002 13.6402 2.45002 12.0437L4.1 10.0262C4.40834 9.64898 4.55 8.94723 4.40833 8.47355L3.56671 5.64021C3.07504 3.97354 3.95836 3.0525 5.53336 3.59636L7.99171 4.44724C8.40837 4.58759 9.03336 4.49109 9.38336 4.21916L11.95 2.27179C13.3334 1.21916 14.4417 1.83321 14.4083 3.63145Z" stroke="#703BF7" stroke-width="1.5" stroke-linecap="round" stroke-linejoin="round"/>
</g>
<path id="Vector_2" d="M18.2584 19.298L15.7334 16.6401" stroke="#703BF7" stroke-width="1.5" stroke-linecap="round" stroke-linejoin="round"/>
</g>
</g>
</g>
</svg>
